<?xml version="1.0" encoding="utf-8"?>
<svg version="1.1" xmlns:xlink="http://www.w3.org/1999/xlink" width="18px" height="19px" preserveAspectRatio="xMidYMin meet" viewBox="1645 289  16 19" xmlns="http://www.w3.org/2000/svg">
  <path d="M 1653.5 263  L 1653.5 297  " stroke-width="1" stroke="#61b3ae" fill="none" />
  <path d="M 1653.5 258  A 3 3 0 0 0 1650.5 261 A 3 3 0 0 0 1653.5 264 A 3 3 0 0 0 1656.5 261 A 3 3 0 0 0 1653.5 258 Z M 1653.5 259  A 2 2 0 0 1 1655.5 261 A 2 2 0 0 1 1653.5 263 A 2 2 0 0 1 1651.5 261 A 2 2 0 0 1 1653.5 259 Z M 1647.2 296  L 1653.5 302  L 1659.8 296  L 1647.2 296  Z " fill-rule="nonzero" fill="#61b3ae" stroke="none" />
</svg>