<?xml version="1.0" encoding="utf-8"?>
<svg version="1.1" xmlns:xlink="http://www.w3.org/1999/xlink" width="18px" height="18px" preserveAspectRatio="xMinYMid meet" viewBox="1644 357  18 16" xmlns="http://www.w3.org/2000/svg">
  <path d="M 1653.5 367  L 1653.5 769  " stroke-width="1" stroke="#61b3ae" fill="none" />
  <path d="M 1653.5 362  A 3 3 0 0 0 1650.5 365 A 3 3 0 0 0 1653.5 368 A 3 3 0 0 0 1656.5 365 A 3 3 0 0 0 1653.5 362 Z M 1653.5 363  A 2 2 0 0 1 1655.5 365 A 2 2 0 0 1 1653.5 367 A 2 2 0 0 1 1651.5 365 A 2 2 0 0 1 1653.5 363 Z M 1647.2 768  L 1653.5 774  L 1659.8 768  L 1647.2 768  Z " fill-rule="nonzero" fill="#61b3ae" stroke="none" />
</svg>