<?xml version="1.0" encoding="utf-8"?>
<svg version="1.1" xmlns:xlink="http://www.w3.org/1999/xlink" width="10px" height="427px" preserveAspectRatio="xMidYMin meet" viewBox="176 833  8 427" xmlns="http://www.w3.org/2000/svg">
  <path d="M 180.5 838  L 180.5 1250  " stroke-width="1" stroke="#61b3ae" fill="none" />
  <path d="M 180.5 833  A 3 3 0 0 0 177.5 836 A 3 3 0 0 0 180.5 839 A 3 3 0 0 0 183.5 836 A 3 3 0 0 0 180.5 833 Z M 180.5 834  A 2 2 0 0 1 182.5 836 A 2 2 0 0 1 180.5 838 A 2 2 0 0 1 178.5 836 A 2 2 0 0 1 180.5 834 Z M 174.2 1249  L 180.5 1255  L 186.8 1249  L 174.2 1249  Z " fill-rule="nonzero" fill="#61b3ae" stroke="none" />
</svg>