<?xml version="1.0" encoding="utf-8"?>
<svg version="1.1" xmlns:xlink="http://www.w3.org/1999/xlink" width="18px" height="18px" preserveAspectRatio="xMinYMid meet" viewBox="171 1309  18 16" xmlns="http://www.w3.org/2000/svg">
  <path d="M 180.5 1319  L 180.5 1569  " stroke-width="1" stroke="#61b3ae" fill="none" />
  <path d="M 180.5 1314  A 3 3 0 0 0 177.5 1317 A 3 3 0 0 0 180.5 1320 A 3 3 0 0 0 183.5 1317 A 3 3 0 0 0 180.5 1314 Z M 180.5 1315  A 2 2 0 0 1 182.5 1317 A 2 2 0 0 1 180.5 1319 A 2 2 0 0 1 178.5 1317 A 2 2 0 0 1 180.5 1315 Z M 174.2 1568  L 180.5 1574  L 186.8 1568  L 174.2 1568  Z " fill-rule="nonzero" fill="#61b3ae" stroke="none" />
</svg>