<?xml version="1.0" encoding="utf-8"?>
<svg version="1.1" xmlns:xlink="http://www.w3.org/1999/xlink" width="10px" height="49px" preserveAspectRatio="xMidYMin meet" viewBox="723 469  8 49" xmlns="http://www.w3.org/2000/svg">
  <path d="M 727.5 474  L 727.5 508  " stroke-width="1" stroke="#61b3ae" fill="none" />
  <path d="M 727.5 469  A 3 3 0 0 0 724.5 472 A 3 3 0 0 0 727.5 475 A 3 3 0 0 0 730.5 472 A 3 3 0 0 0 727.5 469 Z M 727.5 470  A 2 2 0 0 1 729.5 472 A 2 2 0 0 1 727.5 474 A 2 2 0 0 1 725.5 472 A 2 2 0 0 1 727.5 470 Z M 721.2 507  L 727.5 513  L 733.8 507  L 721.2 507  Z " fill-rule="nonzero" fill="#61b3ae" stroke="none" />
</svg>