<?xml version="1.0" encoding="utf-8"?>
<svg version="1.1" xmlns:xlink="http://www.w3.org/1999/xlink" width="18px" height="19px" preserveAspectRatio="xMidYMin meet" viewBox="719 971  16 19" xmlns="http://www.w3.org/2000/svg">
  <path d="M 727.5 578  L 727.5 979  " stroke-width="1" stroke="#61b3ae" fill="none" />
  <path d="M 727.5 573  A 3 3 0 0 0 724.5 576 A 3 3 0 0 0 727.5 579 A 3 3 0 0 0 730.5 576 A 3 3 0 0 0 727.5 573 Z M 727.5 574  A 2 2 0 0 1 729.5 576 A 2 2 0 0 1 727.5 578 A 2 2 0 0 1 725.5 576 A 2 2 0 0 1 727.5 574 Z M 721.2 978  L 727.5 984  L 733.8 978  L 721.2 978  Z " fill-rule="nonzero" fill="#61b3ae" stroke="none" />
</svg>