<?xml version="1.0" encoding="utf-8"?>
<svg version="1.1" xmlns:xlink="http://www.w3.org/1999/xlink" width="18px" height="18px" preserveAspectRatio="xMinYMid meet" viewBox="1125 253  18 16" xmlns="http://www.w3.org/2000/svg">
  <path d="M 1134.5 263  L 1134.5 297  " stroke-width="1" stroke="#61b3ae" fill="none" />
  <path d="M 1134.5 258  A 3 3 0 0 0 1131.5 261 A 3 3 0 0 0 1134.5 264 A 3 3 0 0 0 1137.5 261 A 3 3 0 0 0 1134.5 258 Z M 1134.5 259  A 2 2 0 0 1 1136.5 261 A 2 2 0 0 1 1134.5 263 A 2 2 0 0 1 1132.5 261 A 2 2 0 0 1 1134.5 259 Z M 1128.2 296  L 1134.5 302  L 1140.8 296  L 1128.2 296  Z " fill-rule="nonzero" fill="#61b3ae" stroke="none" />
</svg>