<?xml version="1.0" encoding="utf-8"?>
<svg version="1.1" xmlns:xlink="http://www.w3.org/1999/xlink" width="10px" height="416px" preserveAspectRatio="xMidYMin meet" viewBox="1130 362  8 416" xmlns="http://www.w3.org/2000/svg">
  <path d="M 1134.5 367  L 1134.5 768  " stroke-width="1" stroke="#61b3ae" fill="none" />
  <path d="M 1134.5 362  A 3 3 0 0 0 1131.5 365 A 3 3 0 0 0 1134.5 368 A 3 3 0 0 0 1137.5 365 A 3 3 0 0 0 1134.5 362 Z M 1134.5 363  A 2 2 0 0 1 1136.5 365 A 2 2 0 0 1 1134.5 367 A 2 2 0 0 1 1132.5 365 A 2 2 0 0 1 1134.5 363 Z M 1128.2 767  L 1134.5 773  L 1140.8 767  L 1128.2 767  Z " fill-rule="nonzero" fill="#61b3ae" stroke="none" />
</svg>