<?xml version="1.0" encoding="utf-8"?>
<svg version="1.1" xmlns:xlink="http://www.w3.org/1999/xlink" width="18px" height="19px" preserveAspectRatio="xMidYMin meet" viewBox="1126 1144  16 19" xmlns="http://www.w3.org/2000/svg">
  <path d="M 1134.5 838  L 1134.5 1152  " stroke-width="1" stroke="#61b3ae" fill="none" />
  <path d="M 1134.5 833  A 3 3 0 0 0 1131.5 836 A 3 3 0 0 0 1134.5 839 A 3 3 0 0 0 1137.5 836 A 3 3 0 0 0 1134.5 833 Z M 1134.5 834  A 2 2 0 0 1 1136.5 836 A 2 2 0 0 1 1134.5 838 A 2 2 0 0 1 1132.5 836 A 2 2 0 0 1 1134.5 834 Z M 1128.2 1151  L 1134.5 1157  L 1140.8 1151  L 1128.2 1151  Z " fill-rule="nonzero" fill="#61b3ae" stroke="none" />
</svg>