<?xml version="1.0" encoding="utf-8"?>
<svg version="1.1" xmlns:xlink="http://www.w3.org/1999/xlink" width="10px" height="8px" xmlns="http://www.w3.org/2000/svg">
  <g transform="matrix(1 0 0 1 -168 -193 )">
    <path d="M 9.89979959919845 0.824742268041248  C 9.96659986639946 0.916380297823594  10 1.02176403207332  10 1.14089347079039  C 10 1.26002290950744  9.96659986639946 1.36540664375715  9.89979959919845 1.45704467353951  L 5.23046092184364 7.86254295532646  C 5.16366065464263 7.95418098510882  5.08684034736143 8  5 8  C 4.91315965263857 8  4.83633934535737 7.95418098510882  4.76953907815636 7.86254295532646  L 0.100200400801555 1.45704467353951  C 0.0334001336005372 1.36540664375715  0 1.26002290950744  0 1.14089347079039  C 0 1.02176403207332  0.0334001336005372 0.916380297823594  0.100200400801555 0.824742268041248  L 0.601202404809612 0.137457044673539  C 0.668002672010687 0.0458190148911797  0.744822979291939 0  0.831663326653285 0  C 0.918503674014687 0  0.995323981295883 0.0458190148911797  1.06212424849701 0.137457044673539  L 5 5.53951890034364  L 8.93787575150299 0.137457044673539  C 9.00467601870412 0.0458190148911797  9.08149632598531 0  9.16833667334672 0  C 9.25517702070806 0  9.33199732798931 0.0458190148911797  9.39879759519039 0.137457044673539  L 9.89979959919845 0.824742268041248  Z " fill-rule="nonzero" fill="#666666" stroke="none" transform="matrix(1 0 0 1 168 193 )" />
  </g>
</svg>