<?xml version="1.0" encoding="utf-8"?>
<svg version="1.1" xmlns:xlink="http://www.w3.org/1999/xlink" width="9px" height="14px" xmlns="http://www.w3.org/2000/svg">
  <g transform="matrix(1 0 0 1 -27 -147 )">
    <path d="M 8 12.6768010575016  L 8 1.18440185062789  L 1 1.18440185062789  L 1 12.6768010575016  L 3.87421875 8.92002643754131  L 4.5 8.13350958360873  L 5.12578125 8.92002643754131  L 8 12.6768010575016  Z M 0.815625000000001 0  L 8.184375 0  C 8.2921875 0  8.3953125 0.0277594183740888  8.49375 0.0832782551222806  C 8.6484375 0.163472130425205  8.771484375 0.289931703018283  8.862890625 0.462656972901527  C 8.954296875 0.635382242784758  9 0.826613791584052  9 1.03635161929941  L 9 12.9636483807006  C 9 13.1733862084159  8.954296875 13.3646177572152  8.862890625 13.5373430270985  C 8.771484375 13.7100682969817  8.6484375 13.8365278695748  8.49375 13.9167217448777  C 8.4046875 13.9660718219872  8.3015625 13.990746860542  8.184375 13.990746860542  C 7.959375 13.990746860542  7.76484375 13.892046706323  7.60078125 13.694646397885  L 4.5 9.77131526768011  L 1.39921875 13.694646397885  C 1.23046875 13.8982154659617  1.0359375 14  0.815625000000001 14  C 0.707812499999999 14  0.604687500000001 13.9722405816259  0.506250000000001 13.9167217448777  C 0.3515625 13.8365278695748  0.228515625 13.7100682969817  0.137109375000001 13.5373430270985  C 0.0457031249999993 13.3646177572152  0 13.1733862084159  0 12.9636483807006  L 0 1.03635161929941  C 0 0.826613791584052  0.0457031249999993 0.635382242784758  0.137109375000001 0.462656972901527  C 0.228515625 0.289931703018283  0.3515625 0.163472130425205  0.506250000000001 0.0832782551222806  C 0.604687500000001 0.0277594183740888  0.707812499999999 0  0.815625000000001 0  Z " fill-rule="nonzero" fill="#353535" stroke="none" transform="matrix(1 0 0 1 27 147 )" />
  </g>
</svg>