<?xml version="1.0" encoding="utf-8"?>
<svg version="1.1" xmlns:xlink="http://www.w3.org/1999/xlink" width="206px" height="154px" xmlns="http://www.w3.org/2000/svg">
  <g transform="matrix(1 0 0 1 -277 -379 )">
    <path d="M 277 379  L 483 379  L 483 533  L 277 533  L 277 379  " fill-rule="nonzero" fill="#cccccc" stroke="none" />
    <path d="M 288 390  L 472 390  L 472 522  L 288 522  L 288 390  " fill-rule="nonzero" fill="#ffffff" stroke="none" />
    <path d="M 395.67 425.2  C 389.202 425.2  384.12 420.118  384.12 413.65  C 384.12 407.182  389.202 402.1  395.67 402.1  C 402.138 402.1  407.22 407.182  407.22 413.65  C 407.22 420.118  402.138 425.2  395.67 425.2  " fill-rule="nonzero" fill="#cccccc" stroke="none" />
    <path d="M 292 518  L 292 449.8  L 336 418.8  L 397.6 462.380582524272  L 432.8 437.4  L 468 462.380582524272  L 468 518  L 292 518  " fill-rule="nonzero" fill="#169bd5" stroke="none" />
  </g>
</svg>